<?xml version="1.0" encoding="UTF-8" standalone="no"?>
<!DOCTYPE svg PUBLIC "-//W3C//DTD SVG 1.1//EN" "http://www.w3.org/Graphics/SVG/1.1/DTD/svg11.dtd">
<svg width="100%" height="100%" viewBox="0 0 304 127" version="1.1" xmlns="http://www.w3.org/2000/svg" xmlns:xlink="http://www.w3.org/1999/xlink" xml:space="preserve" xmlns:serif="http://www.serif.com/" style="fill-rule:evenodd;clip-rule:evenodd;stroke-linejoin:round;stroke-miterlimit:2;">
    <g transform="matrix(1,0,0,1,-592.126,-436.544)">
        <g transform="matrix(1,0,0,1,755.349,510.707)">
            <path d="M0,-26.394L3.771,-26.394L3.771,-3.281L18.061,-3.281L18.061,0L0,0L0,-26.394Z" style="fill:white;fill-rule:nonzero;"/>
        </g>
        <g transform="matrix(1,0,0,1,885.392,493.436)">
            <path d="M0,8.146L0,17.27L-3.732,17.27L-3.732,8.071L-14.214,-9.124L-10.18,-9.124L-1.734,4.791L6.75,-9.124L10.481,-9.124L0,8.146Z" style="fill:white;fill-rule:nonzero;"/>
        </g>
        <g transform="matrix(1,0,0,1,611.921,496.302)">
            <path d="M0,2.414C1.005,0.981 1.508,-0.753 1.508,-2.789C1.508,-5.655 0.528,-7.903 -1.433,-9.539C-3.394,-11.172 -6.083,-11.99 -9.502,-11.99L-19.795,-11.99L-19.795,-8.71L-9.615,-8.71C-7.227,-8.71 -5.405,-8.2 -4.148,-7.182C-2.891,-6.164 -2.262,-4.7 -2.262,-2.789C-2.262,-0.878 -2.891,0.592 -4.148,1.622C-5.405,2.653 -7.227,3.168 -9.615,3.168L-19.795,3.168L-19.795,14.404L-16.025,14.404L-16.025,6.373L-9.502,6.373C-9.1,6.373 -8.546,6.348 -7.842,6.297L-2.149,14.404L1.96,14.404L-4.298,5.543C-2.438,4.89 -1.006,3.847 0,2.414" style="fill:white;fill-rule:nonzero;"/>
        </g>
        <g transform="matrix(1,0,0,1,642.575,510.707)">
            <path d="M0,-26.394L-11.953,0L-8.069,0L-5.166,-6.598L-3.846,-9.615L1.847,-22.547L7.541,-9.615L8.86,-6.598L11.764,0L15.723,0L3.733,-26.394L0,-26.394Z" style="fill:white;fill-rule:nonzero;"/>
        </g>
        <g transform="matrix(1,0,0,1,677.301,484.313)">
            <path d="M0,3.28L18.626,3.28L18.626,0L0,0L0,3.28Z" style="fill:white;fill-rule:nonzero;"/>
        </g>
        <g transform="matrix(1,0,0,1,677.301,496.793)">
            <path d="M0,13.913L3.77,13.913L3.77,3.243L17.005,3.243L17.005,0L0,0L0,13.913Z" style="fill:white;fill-rule:nonzero;"/>
        </g>
        <g transform="matrix(1,0,0,1,716.325,484.313)">
            <path d="M0,3.28L18.625,3.28L18.625,0L0,0L0,3.28Z" style="fill:white;fill-rule:nonzero;"/>
        </g>
        <g transform="matrix(1,0,0,1,716.325,496.793)">
            <path d="M0,13.913L3.77,13.913L3.77,3.243L17.004,3.243L17.004,0L0,0L0,13.913Z" style="fill:white;fill-rule:nonzero;"/>
        </g>
        <g transform="matrix(1,0,0,1,796.599,507.502)">
            <path d="M0,-8.598L13.235,-8.598L13.235,-11.802L-3.771,-11.802L-3.771,3.204L15.384,3.204L15.384,-0.077L0,-0.077L0,-8.598Z" style="fill:white;fill-rule:nonzero;"/>
        </g>
        <g transform="matrix(1,0,0,1,811.454,484.313)">
            <path d="M0,3.28L0,0L-18.626,0L-18.626,3.28L0,3.28Z" style="fill:white;fill-rule:nonzero;"/>
        </g>
        <g transform="matrix(1,0,0,1,848.669,493.173)">
            <path d="M0,8.673C1.859,8.02 3.292,6.977 4.298,5.544C5.304,4.111 5.807,2.377 5.807,0.34C5.807,-2.526 4.825,-4.774 2.864,-6.41C0.905,-8.042 -1.785,-8.86 -5.203,-8.86L-15.497,-8.86L-15.497,-5.58L-5.317,-5.58C-2.929,-5.58 -1.106,-5.07 0.15,-4.053C1.406,-3.034 2.035,-1.57 2.035,0.34C2.035,2.251 1.406,3.721 0.15,4.752C-1.106,5.783 -2.929,6.298 -5.317,6.298L-15.497,6.298L-15.497,17.533L-11.727,17.533L-11.727,9.503L-5.203,9.503C-4.803,9.503 -4.249,9.478 -3.545,9.427L2.148,17.533L6.259,17.533L0,8.673Z" style="fill:white;fill-rule:nonzero;"/>
        </g>
        <g transform="matrix(11.4968,0,0,-11.4968,697,462.225)">
            <path d="M0.029,0.232C-0.064,-0.028 0.071,-0.314 0.331,-0.407C0.591,-0.5 0.877,-0.365 0.971,-0.105C1.064,0.155 0.928,0.441 0.669,0.534C0.613,0.554 0.556,0.564 0.5,0.564C0.295,0.564 0.103,0.437 0.029,0.232Z" style="fill:white;fill-rule:nonzero;"/>
        </g>
        <g transform="matrix(11.4968,0,0,-11.4968,742.589,533.607)">
            <path d="M0.029,0.232C-0.064,-0.028 0.071,-0.314 0.331,-0.407C0.591,-0.5 0.877,-0.365 0.971,-0.105C1.064,0.155 0.929,0.441 0.669,0.534C0.613,0.554 0.556,0.564 0.5,0.564C0.295,0.564 0.103,0.437 0.029,0.232Z" style="fill:white;fill-rule:nonzero;"/>
        </g>
        <g transform="matrix(11.4968,0,0,-11.4968,773.945,545.087)">
            <path d="M0.03,0.232C-0.064,-0.028 0.072,-0.314 0.331,-0.407C0.591,-0.5 0.877,-0.365 0.97,-0.105C1.064,0.155 0.929,0.441 0.669,0.534C0.613,0.554 0.556,0.564 0.5,0.564C0.295,0.564 0.103,0.436 0.03,0.232Z" style="fill:white;fill-rule:nonzero;"/>
        </g>
        <g transform="matrix(11.4968,0,0,-11.4968,781.293,525.389)">
            <path d="M0.029,0.232C-0.064,-0.027 0.071,-0.314 0.331,-0.407C0.591,-0.5 0.877,-0.365 0.971,-0.105C1.064,0.155 0.929,0.441 0.669,0.534C0.613,0.554 0.556,0.564 0.5,0.564C0.295,0.564 0.103,0.437 0.029,0.232Z" style="fill:white;fill-rule:nonzero;"/>
        </g>
        <g transform="matrix(10.985,0,0,-10.985,728.634,467.941)">
            <path d="M0.03,0.232C-0.064,-0.028 0.071,-0.314 0.331,-0.407C0.591,-0.5 0.877,-0.365 0.971,-0.105C1.064,0.155 0.929,0.441 0.669,0.534C0.613,0.554 0.556,0.564 0.5,0.564C0.295,0.564 0.103,0.436 0.03,0.232Z" style="fill:white;fill-rule:nonzero;"/>
        </g>
        <g transform="matrix(11.4968,0,0,-11.4968,697,462.225)">
            <path d="M0.029,0.232C-0.064,-0.028 0.071,-0.314 0.331,-0.407C0.591,-0.5 0.877,-0.365 0.971,-0.105C1.064,0.155 0.928,0.441 0.669,0.534C0.613,0.554 0.556,0.564 0.5,0.564C0.295,0.564 0.103,0.437 0.029,0.232Z" style="fill:white;fill-rule:nonzero;"/>
        </g>
        <g transform="matrix(11.4968,0,0,-11.4968,697,462.225)">
            <path d="M0.029,0.232C-0.064,-0.028 0.071,-0.314 0.331,-0.407C0.591,-0.5 0.877,-0.365 0.971,-0.105C1.064,0.155 0.928,0.441 0.669,0.534C0.613,0.554 0.556,0.564 0.5,0.564C0.295,0.564 0.103,0.437 0.029,0.232Z" style="fill:white;fill-rule:nonzero;"/>
        </g>
        <g transform="matrix(81.2816,0,0,-81.2816,675.879,456.251)">
            <path d="M0.142,0.153L0,-0.242L0.052,-0.242L0.188,0.136C0.204,0.181 0.253,0.204 0.298,0.188L0.894,-0.025C0.915,-0.033 0.933,-0.049 0.942,-0.07C0.952,-0.09 0.953,-0.114 0.946,-0.135L0.907,-0.242L0.96,-0.242L0.992,-0.152C1.004,-0.118 1.002,-0.081 0.987,-0.049C0.972,-0.016 0.944,0.009 0.91,0.021L0.315,0.235C0.3,0.24 0.284,0.242 0.269,0.242C0.214,0.242 0.161,0.208 0.142,0.153Z" style="fill:white;fill-rule:nonzero;"/>
        </g>
        <g transform="matrix(83.9984,0,0,-83.9984,728.123,539.959)">
            <path d="M0.949,0.28L0.786,-0.177C0.77,-0.22 0.722,-0.243 0.679,-0.227L0.103,-0.021C0.082,-0.013 0.065,0.002 0.056,0.022C0.046,0.042 0.045,0.065 0.053,0.086L0.122,0.28L0.071,0.28L0.008,0.102C-0.004,0.069 -0.002,0.034 0.013,0.002C0.028,-0.03 0.054,-0.054 0.087,-0.065L0.663,-0.272C0.678,-0.277 0.693,-0.28 0.707,-0.28C0.761,-0.28 0.811,-0.246 0.831,-0.193L1,0.28L0.949,0.28Z" style="fill:white;fill-rule:nonzero;"/>
        </g>
    </g>
</svg>
